<svg xmlns="http://www.w3.org/2000/svg" width="1536" height="1024" viewBox="0 0 1536 1024">
<defs>
  <linearGradient id="bg" x1="0" y1="0" x2="1" y2="1"><stop offset="0" stop-color="#151310"/><stop offset="1" stop-color="#3d2f24"/></linearGradient>
  <filter id="shadow" x="-20%" y="-20%" width="140%" height="140%"><feDropShadow dx="0" dy="10" stdDeviation="16" flood-color="#000" flood-opacity="0.28"/></filter>
</defs>
<rect width="1536" height="1024" fill="url(#bg)"/>
<circle cx="1320" cy="150" r="270" fill="#d58b3f" opacity="0.10"/>
<circle cx="160" cy="890" r="300" fill="#f3e7d0" opacity="0.05"/>
<text x="92" y="128" font-family="Arial, sans-serif" font-weight="700" font-size="70" fill="#f5ead6">Minecraft Agent</text>
<text x="96" y="180" font-family="Arial, sans-serif" font-size="26" fill="#d8b07a">一个负责计划，一个负责当下决策</text>

<!-- lora -->
<g transform="translate(70 255)">
  <ellipse cx="155" cy="300" rx="145" ry="210" fill="#1f1b18"/>
  <circle cx="155" cy="125" r="96" fill="#e7c5a0"/>
  <path d="M62 120 Q78 5 158 8 Q247 8 258 120 Q220 75 187 58 Q144 80 62 120" fill="#3a281f"/>
  <circle cx="190" cy="32" r="55" fill="#3a281f"/>
  <path d="M75 110 Q110 72 150 72 Q197 74 236 114 L232 40 Q173 -2 101 37 Z" fill="#3a281f"/>
  <circle cx="123" cy="130" r="8" fill="#2c241f"/>
  <circle cx="186" cy="130" r="8" fill="#2c241f"/>
  <path d="M138 160 Q155 173 172 160" stroke="#8a5a43" stroke-width="4" fill="none" stroke-linecap="round"/>
  <rect x="60" y="200" width="190" height="250" rx="72" fill="#171513"/>
  <text x="104" y="370" font-family="Arial, sans-serif" font-size="28" fill="#c38a52">lora</text>
</g>

<!-- Mochi -->
<g transform="translate(280 670)">
  <ellipse cx="120" cy="135" rx="112" ry="80" fill="#d99a59"/>
  <polygon points="38,105 63,25 100,92" fill="#d99a59"/>
  <polygon points="142,92 180,25 198,108" fill="#d99a59"/>
  <ellipse cx="120" cy="130" rx="78" ry="60" fill="#f4e4cc"/>
  <circle cx="95" cy="120" r="7" fill="#241d18"/>
  <circle cx="145" cy="120" r="7" fill="#241d18"/>
  <circle cx="120" cy="143" r="8" fill="#241d18"/>
  <path d="M99 69 Q120 45 152 63 L165 94 Q120 82 78 95 Z" fill="#171513"/>
  <text x="88" y="82" font-family="Arial, sans-serif" font-size="20" fill="#d7a26a">Mochi</text>
</g>

<!-- flow cards -->
<g filter="url(#shadow)">
  <rect x="500" y="265" width="270" height="410" rx="28" fill="#f4ead8"/>
  <rect x="795" y="265" width="270" height="410" rx="28" fill="#f4ead8"/>
  <rect x="1090" y="265" width="350" height="410" rx="28" fill="#f4ead8"/>
</g>
<rect x="500" y="265" width="270" height="82" rx="28" fill="#27211c"/><rect x="500" y="320" width="270" height="27" fill="#27211c"/>
<rect x="795" y="265" width="270" height="82" rx="28" fill="#27211c"/><rect x="795" y="320" width="270" height="27" fill="#27211c"/>
<rect x="1090" y="265" width="350" height="82" rx="28" fill="#27211c"/><rect x="1090" y="320" width="350" height="27" fill="#27211c"/>
<text x="548" y="318" font-family="Arial, sans-serif" font-size="38" font-weight="700" fill="#f5ead6">Astra</text>
<text x="840" y="318" font-family="Arial, sans-serif" font-size="38" font-weight="700" fill="#f5ead6">JEV</text>
<text x="1140" y="318" font-family="Arial, sans-serif" font-size="38" font-weight="700" fill="#f5ead6">Mineflayer</text>
<text x="548" y="392" font-family="Arial, sans-serif" font-size="30" font-weight="700" fill="#7a5131">Plan</text>
<text x="840" y="392" font-family="Arial, sans-serif" font-size="30" font-weight="700" fill="#7a5131">Choose</text>
<text x="1140" y="392" font-family="Arial, sans-serif" font-size="30" font-weight="700" fill="#7a5131">Act</text>

<!-- plan visual -->
<path d="M555 560 C590 505 630 530 655 465 C675 420 720 455 730 420" stroke="#b77b43" stroke-width="10" fill="none" stroke-linecap="round" stroke-dasharray="14 14"/>
<circle cx="555" cy="560" r="16" fill="#2d2924"/><circle cx="730" cy="420" r="16" fill="#b77b43"/>
<rect x="545" y="595" width="175" height="18" rx="9" fill="#d8c6aa"/><rect x="545" y="625" width="130" height="14" rx="7" fill="#ded1bc"/>

<!-- choice visual -->
<rect x="845" y="430" width="165" height="55" rx="14" fill="#e2d3bb"/>
<rect x="845" y="500" width="165" height="55" rx="14" fill="#c98a4a" opacity="0.88"/>
<rect x="845" y="570" width="165" height="55" rx="14" fill="#e2d3bb"/>
<circle cx="878" cy="458" r="10" fill="#6d5947"/><circle cx="878" cy="528" r="10" fill="#2c241e"/><circle cx="878" cy="598" r="10" fill="#6d5947"/>
<path d="M900 450 h78 M900 520 h78 M900 590 h78" stroke="#7b6652" stroke-width="8" stroke-linecap="round"/>

<!-- act visual block world -->
<rect x="1135" y="420" width="260" height="190" rx="18" fill="#cdb68f"/>
<rect x="1135" y="525" width="260" height="85" fill="#8b6848"/>
<rect x="1160" y="492" width="58" height="118" fill="#4a3a2f"/><rect x="1218" y="548" width="75" height="62" fill="#6f543f"/><rect x="1293" y="507" width="78" height="103" fill="#3d332c"/>
<path d="M1248 462 Q1270 425 1300 455 Q1330 425 1350 465 Q1320 450 1300 480 Q1275 450 1248 462" fill="#24201d"/>
<circle cx="1300" cy="475" r="7" fill="#d9a05d"/>
<circle cx="1215" cy="545" r="14" fill="#f0dfc4"/><rect x="1200" y="560" width="28" height="42" rx="10" fill="#2a2521"/>

<!-- arrows -->
<path d="M772 470 H790" stroke="#d79a5c" stroke-width="9" stroke-linecap="round"/><polygon points="790,470 774,458 774,482" fill="#d79a5c"/>
<path d="M1067 470 H1085" stroke="#d79a5c" stroke-width="9" stroke-linecap="round"/><polygon points="1085,470 1069,458 1069,482" fill="#d79a5c"/>

<!-- evidence footer -->
<rect x="505" y="735" width="935" height="120" rx="24" fill="#211c18" stroke="#7b5d44" stroke-width="2"/>
<text x="548" y="790" font-family="Arial, sans-serif" font-size="26" fill="#f5ead6">Run evidence</text>
<rect x="548" y="812" width="190" height="15" rx="7" fill="#b98555"/><rect x="765" y="812" width="160" height="15" rx="7" fill="#83705f"/><rect x="952" y="812" width="210" height="15" rx="7" fill="#b98555"/><rect x="1187" y="812" width="150" height="15" rx="7" fill="#83705f"/>
<text x="505" y="916" font-family="Arial, sans-serif" font-size="22" fill="#bda98f">Plan · Choose · Act · Verify</text>
</svg>