<svg xmlns="http://www.w3.org/2000/svg" width="1600" height="900" viewBox="0 0 1600 900">
<rect width="1600" height="900" fill="#F2E8D8"/>
<rect x="45" y="45" width="1510" height="810" rx="30" fill="#171513"/>
<rect x="75" y="75" width="1450" height="750" rx="24" fill="#F7F0E4"/>
<text x="120" y="165" font-family="Arial, sans-serif" font-size="74" font-weight="700" fill="#1B1815">RTK</text>
<text x="120" y="225" font-family="Arial, sans-serif" font-size="34" font-weight="600" fill="#5B4A3B">先过滤 Shell 输出，再给 Agent 看</text>
<text x="120" y="275" font-family="Arial, sans-serif" font-size="24" fill="#7A6756">Agent coding · Shell output · Context control</text>

<rect x="120" y="355" width="360" height="280" rx="24" fill="#211E1A"/>
<text x="155" y="405" font-family="Arial, sans-serif" font-size="28" font-weight="700" fill="#F6E9D5">原始 Shell 输出</text>
<text x="155" y="460" font-family="monospace" font-size="21" fill="#D9C8B2">PASS test_auth</text>
<text x="155" y="498" font-family="monospace" font-size="21" fill="#D9C8B2">PASS test_user</text>
<text x="155" y="536" font-family="monospace" font-size="21" fill="#D9C8B2">PASS test_api</text>
<text x="155" y="574" font-family="monospace" font-size="21" fill="#D9C8B2">... repeated logs ...</text>
<text x="155" y="612" font-family="monospace" font-size="21" fill="#D9C8B2">FAIL test_cache</text>

<path d="M505 495 L610 495" stroke="#B57A3D" stroke-width="12" stroke-linecap="round"/>
<path d="M590 470 L620 495 L590 520" fill="none" stroke="#B57A3D" stroke-width="12" stroke-linecap="round" stroke-linejoin="round"/>

<rect x="650" y="330" width="300" height="330" rx="28" fill="#C68A4B"/>
<text x="800" y="415" text-anchor="middle" font-family="Arial, sans-serif" font-size="56" font-weight="700" fill="#171513">RTK</text>
<text x="800" y="465" text-anchor="middle" font-family="Arial, sans-serif" font-size="27" font-weight="700" fill="#171513">过滤</text>
<line x1="710" y1="510" x2="890" y2="510" stroke="#171513" stroke-width="5"/>
<text x="800" y="555" text-anchor="middle" font-family="Arial, sans-serif" font-size="22" fill="#171513">去噪</text>
<text x="800" y="590" text-anchor="middle" font-family="Arial, sans-serif" font-size="22" fill="#171513">分组</text>
<text x="800" y="625" text-anchor="middle" font-family="Arial, sans-serif" font-size="22" fill="#171513">截断</text>

<path d="M980 495 L1085 495" stroke="#B57A3D" stroke-width="12" stroke-linecap="round"/>
<path d="M1065 470 L1095 495 L1065 520" fill="none" stroke="#B57A3D" stroke-width="12" stroke-linecap="round" stroke-linejoin="round"/>

<rect x="1120" y="355" width="350" height="280" rx="24" fill="#E5D2B8" stroke="#3B3028" stroke-width="5"/>
<text x="1155" y="405" font-family="Arial, sans-serif" font-size="28" font-weight="700" fill="#1B1815">有效上下文</text>
<text x="1155" y="470" font-family="monospace" font-size="22" fill="#3B3028">3 tests passed</text>
<text x="1155" y="515" font-family="monospace" font-size="22" fill="#3B3028">1 test failed</text>
<text x="1155" y="560" font-family="monospace" font-size="22" fill="#3B3028">test_cache</text>
<text x="1155" y="605" font-family="monospace" font-size="22" fill="#8A5A2B">→ fix this</text>

<!-- lora simplified portrait -->
<circle cx="1320" cy="190" r="74" fill="#C98E60"/>
<path d="M1248 185 Q1250 105 1320 100 Q1392 110 1395 186 Q1370 130 1322 138 Q1275 132 1248 185" fill="#2A211C"/>
<circle cx="1295" cy="190" r="7" fill="#201B18"/>
<circle cx="1345" cy="190" r="7" fill="#201B18"/>
<path d="M1302 220 Q1320 232 1338 220" fill="none" stroke="#5B3F32" stroke-width="5" stroke-linecap="round"/>
<path d="M1250 250 Q1320 290 1390 250 L1420 310 L1220 310 Z" fill="#211E1A"/>
<text x="1320" y="292" text-anchor="middle" font-family="Arial, sans-serif" font-size="19" fill="#E9D6BD">lora</text>

<!-- Mochi simplified -->
<ellipse cx="1460" cy="730" rx="72" ry="52" fill="#C98E60"/>
<path d="M1405 702 L1427 650 L1455 700" fill="#C98E60" stroke="#2A211C" stroke-width="4"/>
<path d="M1468 700 L1496 650 L1515 705" fill="#C98E60" stroke="#2A211C" stroke-width="4"/>
<ellipse cx="1438" cy="725" rx="6" ry="7" fill="#201B18"/>
<ellipse cx="1482" cy="725" rx="6" ry="7" fill="#201B18"/>
<circle cx="1460" cy="742" r="7" fill="#201B18"/>
<text x="1460" y="805" text-anchor="middle" font-family="Arial, sans-serif" font-size="19" fill="#5B4A3B">Mochi</text>

<rect x="120" y="715" width="1080" height="62" rx="18" fill="#E9DBC7"/>
<text x="150" y="755" font-family="Arial, sans-serif" font-size="25" font-weight="600" fill="#3B3028">关键机制：Agent 仍执行原命令，RTK 只压缩返回给模型的输出。</text>
</svg>