<svg xmlns="http://www.w3.org/2000/svg" width="1440" height="900" viewBox="0 0 1440 900">
<rect width="1440" height="900" fill="#F7F1E7"/>
<text x="720" y="68" text-anchor="middle" font-size="42" font-family="sans-serif" font-weight="700" fill="#2B241F">How many agents did SAIGE actually use?</text>
<text x="720" y="108" text-anchor="middle" font-size="21" font-family="sans-serif" fill="#806B59">The maximum budget is 4 in every case. Actual averages vary with task dependencies.</text>
<line x1="180" y1="710" x2="1300" y2="710" stroke="#3A312B" stroke-width="2"/>
<line x1="180" y1="190" x2="180" y2="710" stroke="#3A312B" stroke-width="2"/>
<line x1="180" y1="710" x2="1300" y2="710" stroke="#D8CEC1"/><text x="155" y="717" text-anchor="end" font-family="sans-serif" font-size="18" fill="#806B59">0</text>
<line x1="180" y1="585" x2="1300" y2="585" stroke="#D8CEC1"/><text x="155" y="592" text-anchor="end" font-family="sans-serif" font-size="18" fill="#806B59">1</text>
<line x1="180" y1="460" x2="1300" y2="460" stroke="#D8CEC1"/><text x="155" y="467" text-anchor="end" font-family="sans-serif" font-size="18" fill="#806B59">2</text>
<line x1="180" y1="335" x2="1300" y2="335" stroke="#D8CEC1"/><text x="155" y="342" text-anchor="end" font-family="sans-serif" font-size="18" fill="#806B59">3</text>
<line x1="180" y1="210" x2="1300" y2="210" stroke="#C77C66" stroke-width="3" stroke-dasharray="12 8"/><text x="1290" y="195" text-anchor="end" font-size="18" font-family="sans-serif" fill="#C77C66">Maximum agent count = 4</text>
<rect x="260" y="572.5" width="150" height="137.5" fill="#D89B3C"/><text x="335" y="552" text-anchor="middle" font-size="24" font-family="sans-serif" fill="#2B241F">1.10</text>
<rect x="520" y="557.5" width="150" height="152.5" fill="#D89B3C"/><text x="595" y="537" text-anchor="middle" font-size="24" font-family="sans-serif" fill="#2B241F">1.22</text>
<rect x="780" y="226.25" width="150" height="483.75" fill="#8DAA91"/><text x="855" y="206" text-anchor="middle" font-size="24" font-family="sans-serif" fill="#2B241F">3.87</text>
<rect x="1040" y="290" width="150" height="420" fill="#8DAA91"/><text x="1115" y="270" text-anchor="middle" font-size="24" font-family="sans-serif" fill="#2B241F">3.36</text>
<g font-family="sans-serif" font-size="21" fill="#2B241F">
<text x="335" y="758" text-anchor="middle">Terminal Bench 2.1</text><text x="335" y="790" text-anchor="middle" font-size="17" fill="#806B59">Tightly dependent</text>
<text x="595" y="758" text-anchor="middle">NL2Repo</text><text x="595" y="790" text-anchor="middle" font-size="17" fill="#806B59">Tightly dependent</text>
<text x="855" y="758" text-anchor="middle">Deep Research II</text><text x="855" y="790" text-anchor="middle" font-size="17" fill="#806B59">Sparsely dependent</text>
<text x="1115" y="758" text-anchor="middle">AgentIF-OneDay</text><text x="1115" y="790" text-anchor="middle" font-size="17" fill="#806B59">Sparsely dependent</text>
</g>
<text x="720" y="852" text-anchor="middle" font-size="18" font-family="sans-serif" fill="#806B59">Source: Figure 5 of the paper. Averages reflect its experimental setup and are not general recommendations.</text>
</svg>